<?xml version="1.0" standalone="no"?>
<!DOCTYPE svg PUBLIC "-//W3C//DTD SVG 20010904//EN"
 "http://www.w3.org/TR/2001/REC-SVG-20010904/DTD/svg10.dtd">
<svg version="1.0" xmlns="http://www.w3.org/2000/svg"
 width="160.000000pt" height="160.000000pt" viewBox="0 0 160.000000 160.000000"
 preserveAspectRatio="xMidYMid meet">
<metadata>
Created by potrace 1.14, written by Peter Selinger 2001-2017
</metadata>
<g transform="translate(0.000000,160.000000) scale(0.100000,-0.100000)"
fill="#000000" stroke="none">
<path d="M788 1574 c-2 -1 -27 -5 -57 -9 -70 -9 -78 -10 -137 -28 -63 -19
-202 -85 -224 -107 -3 -3 -25 -21 -50 -40 -43 -33 -83 -73 -169 -170 -55 -62
-92 -138 -97 -202 -3 -29 -8 -67 -13 -84 -8 -31 -7 -190 2 -229 3 -11 8 -41
11 -67 32 -238 264 -499 506 -568 41 -12 93 -31 114 -42 38 -20 80 -24 144
-14 15 3 47 8 72 11 25 4 70 14 100 23 30 9 57 17 60 17 59 17 171 79 234 132
65 54 141 148 191 238 16 28 39 64 52 82 77 105 73 376 -8 575 -79 194 -280
385 -456 433 -32 9 -66 20 -76 26 -27 15 -189 34 -199 23z"/>
</g>
</svg>
